<?xml version="1.0" encoding="UTF-8"?>
<svg id="a" data-name="Main" xmlns="http://www.w3.org/2000/svg" viewBox="0 0 512 512">
  <defs>
    <style>
      .c, .d {
        stroke-width: 2px;
      }

      .c, .d, .e, .f {
        stroke-miterlimit: 10;
      }

      .c, .d, .f {
        fill: #e5b80b;
        stroke: #4b3b00;
      }

      .d, .f {
        fill-rule: evenodd;
      }

      .e {
        fill: #0a0f2c;
        stroke: #293b72;
        stroke-width: 5px;
      }
    </style>
  </defs>
  <g id="b" data-name="Full Color">
    <rect class="e" x="2.548" y="2.677" width="507.097" height="507.097" rx="120" ry="120"/>
    <g>
      <path class="d" d="M288.344,348.225c16.898-.16,23.522,5.395,33.257,41.824,9.734,36.429,10.151,47.35-7.033,50.323-23.157.22-24.374-29.111-37.518-28.986l-44.289.42c-13.142.125-13.804,29.473-36.96,29.693-17.238-2.647-17.029-13.573-7.986-50.18,9.041-36.606,15.559-42.287,32.457-42.448l68.072-.646ZM290.095,389.413c-4.325.041-7.798,3.567-7.757,7.877s3.58,7.769,7.905,7.728,7.799-3.567,7.758-7.877-3.581-7.769-7.906-7.728ZM219.35,361.99q-6.578.062-6.513,6.929l.065,6.866-7.048.067q-7.048.067-6.981,7.091t7.114,6.956l7.048-.067.064,6.71q.064,6.711,6.641,6.648,6.579-.062,6.515-6.773l-.064-6.71,7.048-.067q7.048-.067,6.981-7.09-.067-7.024-7.114-6.957l-7.048.067-.065-6.866q-.065-6.867-6.644-6.804ZM275.539,373.943c-4.325.041-7.798,3.568-7.758,7.877.041,4.31,3.581,7.77,7.906,7.729s7.798-3.568,7.757-7.878-3.58-7.769-7.905-7.728ZM303.729,373.676c-4.325.041-7.797,3.568-7.757,7.877s3.58,7.77,7.905,7.729,7.799-3.568,7.758-7.878-3.58-7.769-7.906-7.728ZM289.817,360.073c-4.325.041-7.798,3.568-7.757,7.877s3.58,7.77,7.905,7.729,7.799-3.568,7.758-7.878-3.581-7.769-7.906-7.728Z"/>
      <path class="d" d="M211.5,220.919l.499.86c5.182,8.767,11.325,13.881,21.304,19.304l.258.14-27.308,58.434c12.881-6.35,29.32-10.761,48.511-10.555,19.191-.205,35.63,4.343,48.509,10.657l-27.307-58.046.26-.141c10.301-5.56,16.514-10.794,21.802-20.03l.31-.541,77.103,176.608-23.428,12.07-.131-.313c-12.992-31.14-26.439-53.796-42.053-68.665-15.602-14.858-33.377-21.953-55.065-21.953s-39.462,7.146-55.064,22.108c-15.614,14.974-29.062,37.785-42.055,69.133l-.019.048-.035.039c-5.796,6.555-12.51,15.03-18.24,21.754-2.859,3.354-5.472,6.27-7.589,8.273-1.058,1-2.003,1.784-2.802,2.28-.399.248-.773.431-1.115.531-.298.087-.592.116-.862.05l-.113-.034c-.295-.105-.483-.359-.603-.649-.12-.293-.193-.67-.232-1.106-.077-.876-.023-2.072.129-3.51.305-2.881,1.013-6.802,1.913-11.226.901-4.426,1.998-9.367,3.084-14.29,1.087-4.925,2.163-9.833,3.023-14.197l.007-.033.013-.031,76.986-177.515.31.546ZM288.463,304.122c-.975-.356-2.05.143-2.402,1.116l-3.4,9.396c-.352.973.153,2.051,1.127,2.408.975.356,2.05-.143,2.402-1.116l3.4-9.396c.352-.973-.153-2.051-1.127-2.408ZM221.323,305.195c-.352-.973-1.428-1.472-2.402-1.116-.975.357-1.479,1.435-1.127,2.408l3.403,9.395c.352.973,1.427,1.472,2.402,1.116.974-.357,1.478-1.434,1.126-2.407l-3.402-9.396ZM271.007,298.186c-1.022-.181-1.995.498-2.174,1.517l-1.725,9.839c-.178,1.019.506,1.991,1.527,2.173,1.022.181,1.996-.498,2.174-1.516l1.725-9.84c.179-1.019-.505-1.992-1.527-2.173ZM239.349,299.67c-.178-1.019-1.152-1.697-2.173-1.516-1.022.181-1.706,1.154-1.528,2.173l1.725,9.839c.179,1.019,1.152,1.698,2.174,1.517s1.706-1.154,1.527-2.173l-1.725-9.84ZM254.121,296.609c-1.038,0-1.88.839-1.88,1.873v9.988c0,1.035.842,1.873,1.88,1.873s1.879-.838,1.879-1.873v-9.988c0-1.034-.841-1.873-1.879-1.873Z"/>
      <path class="c" d="M375.941,403.413l-18.447,9.31c24.619,43.083,39.812,34.325,18.447-9.31Z"/>
      <path class="f" d="M255.022,182.995c1.385.055,2.595.957,3.675,2.321,1.118,1.413,2.145,3.383,3.129,5.621.985,2.241,1.937,4.774,2.897,7.323.962,2.553,1.934,5.124,2.964,7.455l.039.099c.373,1.018-.366,2.149-1.489,2.149h-3.646c-.611,0-1.162-.353-1.418-.897l-.047-.112-.69-1.819c-.138-.364-.488-.605-.879-.605h-8.911c-.375,0-.711.221-.86.558l-.028.068-.619,1.762c-.22.626-.813,1.045-1.478,1.045h-3.21c-1.139,0-1.89-1.168-1.465-2.204l.356-.885c.825-2.09,1.613-4.34,2.394-6.577.892-2.553,1.775-5.09,2.689-7.335.912-2.242,1.865-4.215,2.903-5.632,1.031-1.406,2.2-2.337,3.559-2.338l.135.003ZM251.048,199.067h7.997l-3.999-8.895-3.998,8.895Z"/>
      <path class="d" d="M254.747,154.276c23.528,0,42.602,19.006,42.602,42.45s-19.074,42.451-42.602,42.451-42.603-19.006-42.603-42.451,19.074-42.45,42.603-42.45ZM254.747,174.253c-12.457,0-22.554,10.062-22.554,22.473s10.097,22.474,22.554,22.474,22.554-10.062,22.554-22.474-10.098-22.473-22.554-22.473Z"/>
      <path class="c" d="M240.964,131.803h27.566v17.479c-8.334-1.873-20.835-1.561-27.566,0v-17.479Z"/>
      <path class="d" d="M254.434,70c16.954,0,30.385,14.277,30.385,30.106,0,10.252-5.939,19.319-13.783,24.83h-34.025c-7.844-5.511-12.963-14.578-12.963-24.83,0-16.799,13.431-30.106,30.386-30.106ZM253.17,79.312c-4.762-2.808-16.304,5.195-19.634,13.728-3.235,8.293-.09,17.794,3.761,16.848,5.079-1.248,1.021-7.673,4.444-16.848,3.492-8.736,15.872-11.232,11.429-13.728Z"/>
    </g>
  </g>
</svg>