<svg width="260" height="373" viewBox="0 0 260 373" fill="none" xmlns="http://www.w3.org/2000/svg">
<path fill-rule="evenodd" clip-rule="evenodd" d="M162.784 279.672C179.683 279.672 186.254 285.29 195.643 321.81C205.031 358.33 205.344 369.254 188.133 372.064C164.975 372.064 164.036 342.723 150.892 342.723H106.601C93.4577 342.723 92.5184 372.064 69.3608 372.064C52.1493 369.254 52.4625 358.33 61.8507 321.81C71.2389 285.291 77.8105 279.672 94.7092 279.672H162.784ZM164.144 320.874C159.819 320.874 156.313 324.367 156.313 328.677C156.313 332.987 159.819 336.48 164.144 336.48C168.469 336.48 171.976 332.987 171.976 328.677C171.976 324.367 168.469 320.874 164.144 320.874ZM93.6624 292.782C87.0841 292.782 87.0841 292.782 87.0841 299.649V306.515H80.0359C72.9877 306.515 72.9877 306.516 72.9877 313.539C72.9877 320.562 72.9877 320.562 80.0359 320.562H87.0841V327.272C87.0841 333.983 87.0841 333.983 93.6624 333.983C100.241 333.983 100.241 333.983 100.241 327.272V320.562H107.289C114.337 320.562 114.337 320.562 114.337 313.539C114.337 306.515 114.337 306.515 107.289 306.515H100.241V299.649C100.241 292.782 100.241 292.782 93.6624 292.782ZM149.735 305.267C145.41 305.267 141.903 308.761 141.903 313.07C141.903 317.38 145.41 320.874 149.735 320.874C154.06 320.874 157.566 317.38 157.566 313.07C157.566 308.761 154.06 305.267 149.735 305.267ZM177.927 305.267C173.602 305.267 170.096 308.761 170.096 313.07C170.096 317.38 173.602 320.874 177.927 320.874C182.253 320.874 185.759 317.38 185.759 313.07C185.759 308.761 182.253 305.267 177.927 305.267ZM164.144 291.533C159.819 291.533 156.313 295.027 156.313 299.336C156.313 303.646 159.819 307.14 164.144 307.14C168.469 307.14 171.976 303.646 171.976 299.336C171.976 295.027 168.469 291.533 164.144 291.533Z" fill="#E5B80B"/>
<path fill-rule="evenodd" clip-rule="evenodd" d="M85.5004 150.919L85.9991 151.779C91.181 160.546 97.3244 165.66 107.303 171.083L107.561 171.223L80.2528 229.657C93.134 223.307 109.573 218.896 128.764 219.102C147.955 218.897 164.394 223.445 177.273 229.759L149.966 171.713L150.226 171.572C160.527 166.012 166.74 160.778 172.028 151.542L172.338 151.001L249.441 327.609L226.013 339.679L225.882 339.366C212.89 308.226 199.443 285.57 183.829 270.701C168.227 255.843 150.452 248.748 128.764 248.748C107.077 248.748 89.3022 255.894 73.7002 270.856C58.086 285.83 44.6375 308.641 31.6454 339.989L31.6258 340.037L31.591 340.076C25.7954 346.631 19.0813 355.106 13.3507 361.83C10.4921 365.184 7.87911 368.1 5.76166 370.103C4.70424 371.103 3.75881 371.887 2.96013 372.383C2.56095 372.631 2.18658 372.814 1.84477 372.914C1.54677 373.001 1.25298 373.03 0.983329 372.964L0.86953 372.93C0.574547 372.825 0.387227 372.571 0.267497 372.281C0.146712 371.988 0.0735588 371.611 0.0350046 371.175C-0.0423062 370.299 0.0118133 369.103 0.164099 367.665C0.469205 364.784 1.17665 360.863 2.07727 356.439C2.97835 352.013 4.07527 347.072 5.16146 342.149C6.24799 337.224 7.32394 332.316 8.18448 327.952L8.19121 327.919L8.20405 327.888L85.1903 150.373L85.5004 150.919ZM162.463 234.122C161.488 233.766 160.413 234.265 160.061 235.238L156.661 244.634C156.309 245.607 156.814 246.685 157.788 247.042C158.763 247.398 159.838 246.899 160.19 245.926L163.59 236.53C163.942 235.557 163.437 234.479 162.463 234.122ZM95.3233 235.195C94.971 234.222 93.895 233.723 92.9206 234.079C91.9464 234.436 91.442 235.514 91.7943 236.487L95.1966 245.882C95.5489 246.855 96.6242 247.354 97.5986 246.998C98.573 246.641 99.0771 245.564 98.725 244.591L95.3233 235.195ZM145.007 228.186C143.985 228.005 143.012 228.684 142.833 229.703L141.108 239.542C140.93 240.561 141.614 241.533 142.635 241.715C143.657 241.896 144.631 241.217 144.809 240.199L146.534 230.359C146.713 229.34 146.029 228.367 145.007 228.186ZM113.349 229.67C113.171 228.651 112.197 227.973 111.176 228.154C110.154 228.335 109.47 229.308 109.648 230.327L111.373 240.166C111.552 241.185 112.525 241.864 113.547 241.683C114.569 241.502 115.253 240.529 115.074 239.51L113.349 229.67ZM128.121 226.609C127.083 226.609 126.241 227.448 126.241 228.482V238.47C126.241 239.505 127.083 240.343 128.121 240.343C129.159 240.343 130 239.505 130 238.47V228.482C130 227.448 129.159 226.609 128.121 226.609Z" fill="#E5B80B"/>
<path d="M249.941 333.413L231.494 342.723C240.231 357.526 249.661 369.938 257.743 367.699C263.466 362.62 257.364 348.913 249.941 333.413Z" fill="#E5B80B"/>
<path fill-rule="evenodd" clip-rule="evenodd" d="M129.022 112.995C130.407 113.05 131.617 113.952 132.697 115.316C133.815 116.729 134.842 118.699 135.826 120.937C136.811 123.178 137.763 125.711 138.723 128.26C139.685 130.813 140.657 133.384 141.687 135.715L141.726 135.814C142.099 136.832 141.36 137.963 140.237 137.963H136.591C135.98 137.963 135.429 137.61 135.173 137.066L135.126 136.954L134.436 135.135C134.298 134.771 133.948 134.53 133.557 134.53H124.646C124.271 134.53 123.935 134.751 123.786 135.088L123.758 135.156L123.139 136.918C122.919 137.544 122.326 137.963 121.661 137.963H118.451C117.312 137.963 116.561 136.795 116.986 135.759L117.342 134.874C118.167 132.784 118.955 130.534 119.736 128.297C120.628 125.744 121.511 123.207 122.425 120.962C123.337 118.72 124.29 116.747 125.328 115.33C126.359 113.924 127.528 112.993 128.887 112.992L129.022 112.995ZM125.048 129.067H133.045L129.046 120.172L125.048 129.067Z" fill="#E5B80B"/>
<path fill-rule="evenodd" clip-rule="evenodd" d="M128.747 84.2762C152.275 84.2762 171.349 103.282 171.349 126.726C171.349 150.171 152.275 169.177 128.747 169.177C105.218 169.177 86.1445 150.171 86.1444 126.726C86.1444 103.282 105.218 84.2762 128.747 84.2762ZM128.747 104.253C116.29 104.253 106.193 114.315 106.193 126.726C106.193 139.138 116.29 149.2 128.747 149.2C141.203 149.2 151.301 139.138 151.301 126.726C151.301 114.315 141.203 104.253 128.747 104.253Z" fill="#E5B80B"/>
<path d="M114.964 61.8025H142.53V79.282C134.196 77.4092 121.695 77.7213 114.964 79.282V61.8025Z" fill="#E5B80B"/>
<path fill-rule="evenodd" clip-rule="evenodd" d="M128.434 0C145.388 0 158.819 14.2769 158.819 30.1057C158.819 40.3577 152.88 49.4253 145.036 54.9356H111.011C103.167 49.4253 98.048 40.3577 98.048 30.1057C98.0482 13.3073 111.479 0 128.434 0ZM127.17 9.31159C122.408 6.50357 110.866 14.5061 107.536 23.04C104.301 31.3326 107.446 40.8341 111.297 39.8879C116.376 38.6399 112.318 32.2149 115.741 23.04C119.233 14.3041 131.613 11.8075 127.17 9.31159Z" fill="#E5B80B"/>
</svg>
